<?xml version="1.0" encoding="UTF-8"?>
<svg version="1.1" xmlns="http://www.w3.org/2000/svg" width="276" height="412">
<path d="M0 0 C1.309372 -0.00657338 1.309372 -0.00657338 2.64519596 -0.01327956 C5.57596617 -0.02665487 8.50670631 -0.03284364 11.4375 -0.03897095 C13.53682084 -0.04687305 15.63614032 -0.05514207 17.73545837 -0.06375122 C24.63612574 -0.08996366 31.53679913 -0.10528032 38.4375 -0.11953735 C40.8146261 -0.12489777 43.19175215 -0.13027528 45.56887817 -0.13566971 C55.45985895 -0.15729927 65.3508381 -0.17603447 75.24183655 -0.1872921 C89.40651154 -0.20352077 103.57091176 -0.23667173 117.73548317 -0.29369295 C127.70000014 -0.33243501 137.66444375 -0.35192999 147.62903404 -0.35721266 C153.57743995 -0.36086086 159.52555275 -0.37282577 165.47387695 -0.4053154 C171.07507677 -0.43546996 176.67580725 -0.44168129 182.277071 -0.42993164 C184.32644974 -0.42971151 186.37585072 -0.43796597 188.42515373 -0.45558548 C203.68243538 -0.57956237 214.762152 0.65911052 226.2421875 11.7515564 C232.65193944 18.76578672 236.67544925 25.66943028 236.70314884 35.36601257 C236.71144783 36.59896372 236.71974682 37.83191486 236.72829729 39.10222816 C236.72742787 40.46230711 236.72635928 41.82238594 236.72511292 43.1824646 C236.73099978 44.63372336 236.73773958 46.08497886 236.74525779 47.53623009 C236.76330695 51.52041103 236.76884916 55.50452579 236.77224457 59.48874259 C236.7780085 63.78753633 236.79513507 68.08628778 236.81059265 72.38505554 C236.84532516 82.76460683 236.8609293 93.14415455 236.87471595 103.52375126 C236.8816814 108.41526094 236.89083739 113.3067664 236.89982414 118.19827271 C236.92902633 134.464766 236.9538186 150.73125518 236.96444798 166.99777222 C236.96513867 168.03860639 236.96582936 169.07944057 236.96654099 170.15181518 C236.967233 171.19510679 236.96792502 172.23839839 236.968638 173.3133049 C236.97004998 175.42732494 236.97147079 177.54134497 236.97290039 179.65536499 C236.97360556 180.70398665 236.97431073 181.75260831 236.97503727 182.83300638 C236.98728055 199.81407071 237.030061 216.79491147 237.08584059 233.77588308 C237.14267911 251.22127853 237.17310237 268.66656108 237.17746013 286.11205006 C237.18053797 295.90247016 237.19496539 305.69257974 237.23874092 315.48291016 C237.27592328 323.82201341 237.28898042 332.16072207 237.27103604 340.49989635 C237.26260781 344.75098558 237.26528348 349.00126989 237.29885483 353.25225258 C237.32938353 357.15266521 237.32690337 361.0516838 237.29936682 364.95210588 C237.29505864 366.35460453 237.30231331 367.75720297 237.32303984 369.15955508 C237.48929851 381.17039593 234.28482433 391.23868289 226 400.21640015 C215.33899643 409.6217744 204.56600345 411.60791774 190.609375 411.55795288 C189.24482671 411.56366754 187.8802832 411.57063601 186.51574707 411.57875061 C182.83802919 411.5965742 179.1605513 411.59553448 175.48280334 411.58980823 C172.40141994 411.5867013 169.32008164 411.59282528 166.23870468 411.59884697 C158.96508728 411.61285447 151.69158744 411.61136188 144.41796875 411.59994507 C136.93677353 411.5884613 129.4559367 411.6025523 121.97478867 411.62934154 C115.5285987 411.65155267 109.0825208 411.65812396 102.63629532 411.65226513 C98.79630183 411.648908 94.95653812 411.65122744 91.11657715 411.66851616 C87.50481699 411.68407062 83.89358503 411.67993691 80.28184509 411.66121101 C78.33962156 411.65581472 76.39737382 411.66997339 74.4552002 411.68490601 C65.92881798 411.61368263 58.71332097 410.42926822 51.81640625 405.14608765 C51.21699219 404.44741577 50.61757812 403.7487439 50 403.02890015 C49.38253906 402.34569702 48.76507813 401.6624939 48.12890625 400.95858765 C43.85481246 393.87129124 42.99387662 386.25146036 43.06518555 378.12802124 C43.06153488 377.18000137 43.05788422 376.23198151 43.05412292 375.25523376 C43.04607292 372.14574793 43.05959589 369.03679305 43.07421875 365.92733765 C43.07473862 363.73468018 43.07421602 361.54202224 43.07270813 359.34936523 C43.07279765 354.75484241 43.08317414 350.16049574 43.10131836 345.56600952 C43.12381625 339.74833839 43.12458142 333.93092842 43.11780071 328.11322594 C43.11441434 323.57944523 43.12118022 319.04572127 43.13092995 314.51195145 C43.13471671 312.37148971 43.13595807 310.23102158 43.1343441 308.0905571 C43.12980511 272.04289898 44.45983265 230.33633157 71.4375 203.15390015 C72.283125 202.26702515 73.12875 201.38015015 74 200.46640015 C74.804375 199.70327515 75.60875 198.94015015 76.4375 198.15390015 C76.97246094 197.63569702 77.50742188 197.1174939 78.05859375 196.58358765 C87.74479688 187.60220179 98.83567595 181.89956867 111.4375 178.15390015 C112.62666016 177.78458374 112.62666016 177.78458374 113.83984375 177.4078064 C127.85512025 173.83625087 144.76926318 174.7187141 157.390625 181.8140564 C167.41044719 188.48024958 173.86318409 197.73490141 177.4375 209.15390015 C177.77394531 210.1574353 177.77394531 210.1574353 178.1171875 211.1812439 C181.76506448 224.1986679 180.34097459 240.03573923 174.125 251.96640015 C173.25602913 253.37911303 172.36120454 254.77635233 171.4375 256.15390015 C171.05335938 256.7571814 170.66921875 257.36046265 170.2734375 257.98202515 C163.40751205 267.33316288 150.45643192 272.23632947 139.5625 274.84140015 C131.98554931 275.59909522 124.72693566 275.13110873 117.1875 274.15390015 C100.98110547 272.10829301 85.00253105 271.70516002 71.4375 282.15390015 C63.53680374 289.26452678 57.85680939 298.55209653 56.4375 309.15390015 C56.33850257 311.62686753 56.28944773 314.1020823 56.27636719 316.57699585 C56.27140228 317.29493317 56.26643738 318.01287048 56.26132202 318.75256348 C56.24679879 321.11161278 56.23991515 323.47059486 56.234375 325.8296814 C56.23154762 326.64038778 56.22872025 327.45109417 56.22580719 328.28636742 C56.21085486 332.57611793 56.20160027 336.86583515 56.19726562 341.15560913 C56.19178494 345.56695265 56.16775414 349.97798692 56.13929367 354.38923359 C56.12059204 357.79949308 56.11545772 361.20967915 56.11392975 364.61998558 C56.11091998 366.24534992 56.10294864 367.8707135 56.08974457 369.49602699 C55.95445608 381.62859588 55.95445608 381.62859588 59.4375 393.15390015 C66.34172859 399.29099222 74.81179956 398.30262537 83.52636719 398.29916382 C84.74013031 398.30252243 85.95389343 398.30588104 87.20443726 398.30934143 C90.52284858 398.31719783 93.84119732 398.32051811 97.15961361 398.32115722 C99.23718214 398.32186986 101.31474418 398.32400826 103.3923111 398.32665443 C110.65282098 398.33589737 117.91331255 398.33999077 125.17382812 398.33920288 C131.92093405 398.33860284 138.66795984 398.34914293 145.4150455 398.36494654 C151.2241957 398.37806394 157.03331984 398.383385 162.84248471 398.38274747 C166.30465342 398.38249365 169.76675089 398.38527997 173.22890472 398.39592552 C177.09631925 398.40749312 180.96362573 398.40283406 184.83105469 398.39682007 C185.96386871 398.40243958 187.09668274 398.40805908 188.26382446 398.41384888 C198.93068951 398.37184779 208.24312626 397.50220088 216.4375 390.15390015 C224.44814964 380.87389703 224.73315489 371.31960154 224.69819641 359.54125977 C224.70122002 358.15967203 224.70511056 356.77808597 224.70978898 355.39650285 C224.7200507 351.61432751 224.71789183 347.83224715 224.71360838 344.05006409 C224.71113784 339.96543868 224.7201594 335.88083594 224.72764587 331.79621887 C224.74038575 323.79953254 224.74218745 315.8028798 224.73984561 307.80618502 C224.7380615 301.30521793 224.73981408 294.80426101 224.74407005 288.30329514 C224.74496284 286.91463283 224.74496284 286.91463283 224.74587366 285.49791675 C224.74708543 283.61711133 224.74829956 281.73630592 224.74951603 279.8555005 C224.76038883 262.2229911 224.75823031 244.59050082 224.75213119 226.95799033 C224.74696222 210.83448022 224.7582174 194.71103052 224.77722941 178.58753236 C224.79661082 162.02350331 224.80486327 145.45950285 224.80110615 128.89546239 C224.79919458 119.59939229 224.80167746 110.30337362 224.81582069 101.00731277 C224.82773932 93.09349064 224.82913397 85.17975158 224.81703053 77.26592828 C224.81114524 73.23024879 224.81003267 69.19472123 224.82203293 65.1590519 C224.83290309 61.46037204 224.82977509 57.76197076 224.81577124 54.06330387 C224.8118807 52.10066693 224.82266215 50.13801757 224.83406812 48.17540991 C224.76854624 37.42944566 223.25207826 28.03872181 215.4375 20.15390015 C208.52888701 14.73456899 201.75590836 12.85140644 193.00740051 12.88647461 C191.75566017 12.87967794 191.75566017 12.87967794 190.47863215 12.87274396 C187.68988099 12.86011106 184.9013254 12.86171963 182.11254883 12.8633728 C180.10983022 12.85738677 178.10711391 12.85058105 176.10440063 12.84301758 C170.66822796 12.82535571 165.23211825 12.82066205 159.79591966 12.81938601 C156.39702275 12.81796369 152.99814182 12.81369251 149.59924889 12.80839157 C137.73404297 12.78988903 125.86888197 12.78172104 114.00366211 12.78329468 C102.95648601 12.78449538 91.90950551 12.76340748 80.8623789 12.73180735 C71.36831236 12.7056209 61.8743096 12.69492841 52.38020724 12.6962055 C46.7141693 12.69671453 41.04830511 12.69106385 35.38230324 12.6698494 C30.04950002 12.65042782 24.71703557 12.65036947 19.38422012 12.66488266 C17.43279842 12.66696715 15.48135529 12.66229147 13.52997017 12.65016174 C-1.01738924 12.3616913 -1.01738924 12.3616913 -14.5625 17.15390015 C-15.5678494 18.14852198 -16.5690209 19.14742149 -17.5625 20.15390015 C-18.2225 20.15390015 -18.8825 20.15390015 -19.5625 20.15390015 C-19.99369141 21.01821655 -19.99369141 21.01821655 -20.43359375 21.8999939 C-21.15073673 23.3317984 -21.87166007 24.76172051 -22.59765625 26.1890564 C-22.93667969 26.85807983 -23.27570312 27.52710327 -23.625 28.21640015 C-23.96660156 28.88800171 -24.30820312 29.55960327 -24.66015625 30.2515564 C-26.39998676 33.91951076 -26.68972934 36.7931645 -26.69672108 40.80501652 C-26.70117892 41.98917717 -26.70563676 43.17333782 -26.71022969 44.39338213 C-26.71004533 45.70074483 -26.70986097 47.00810753 -26.70967102 48.35508728 C-26.71296979 49.75298268 -26.71669538 51.15087714 -26.7208125 52.54877037 C-26.73083941 56.39922272 -26.73455041 60.24965949 -26.73720181 64.10012305 C-26.74110289 68.24959135 -26.75068145 72.39904728 -26.75941467 76.54850769 C-26.779186 86.57482839 -26.78924673 96.6011501 -26.79814246 106.62748542 C-26.8025248 111.34866728 -26.8078918 116.06984801 -26.81313133 120.79102898 C-26.83014527 136.48523634 -26.84463906 152.17944301 -26.85188007 167.87365818 C-26.85378998 171.94729679 -26.85571031 176.02093539 -26.85766602 180.09457397 C-26.85814976 181.10706339 -26.8586335 182.1195528 -26.8591319 183.16272371 C-26.86743072 199.5613899 -26.89276441 215.95998311 -26.92524669 232.35861743 C-26.95832161 249.19368691 -26.97632928 266.02871931 -26.97952431 282.86382145 C-26.98168915 292.31648751 -26.99043382 301.76904719 -27.01598549 311.22168159 C-27.03769848 319.27287481 -27.04574 327.32393581 -27.03601871 335.37515498 C-27.03147556 339.48173342 -27.03336087 343.58803909 -27.05278015 347.69458008 C-27.0704241 351.45828253 -27.06940445 355.22151348 -27.05388286 358.98522102 C-27.05038873 360.98290677 -27.066524 362.98059754 -27.08348733 364.97821432 C-27.00900178 375.41565195 -24.82013868 383.75728634 -17.55078125 391.4624939 C-10.52510169 397.43915254 -1.59330217 398.56237163 7.359375 398.34921265 C10.6358513 398.04127314 12.08481692 397.50658323 14.4375 395.15390015 C18.27722058 386.89013091 17.86693584 377.94142933 17.83813477 369.04452515 C17.84388768 367.43320713 17.85097469 365.82189341 17.85928345 364.21058655 C17.87433876 360.75291963 17.88017558 357.29540655 17.87875557 353.83770752 C17.87670403 348.33307524 17.89641802 342.82864502 17.91893005 337.32406616 C17.95605609 327.58508237 17.9753684 317.84612567 17.99047852 308.10708618 C18.01307807 293.54227144 18.04812469 278.97750725 18.10230106 264.41277504 C18.11868229 259.85556246 18.13088959 255.29842395 18.13253975 250.74118042 C18.13912825 232.98969775 18.30023361 215.2917834 19.36694336 197.56796265 C19.40810622 196.88354033 19.44926909 196.199118 19.49167931 195.49395561 C22.21892536 151.30351513 29.54933725 106.84337418 59.4375 72.15390015 C60.03820312 71.40882202 60.63890625 70.6637439 61.2578125 69.89608765 C77.34913131 50.57303954 103.81211296 37.72590459 128.4375 34.15390015 C151.16151608 32.72453075 173.42331214 34.86674956 191.46582031 50.08358765 C203.84692263 61.2431299 210.43595222 75.6456204 211.66040039 92.1602478 C212.32242971 109.99071356 211.42578471 124.4089369 200.4375 139.15390015 C199.93734375 139.8603064 199.4371875 140.56671265 198.921875 141.29452515 C188.50924977 154.6521353 172.49398038 159.51250882 156.40673828 161.73666382 C148.59729192 162.55757315 140.75093264 162.54376993 132.90454102 162.61019897 C118.61861327 162.75348338 104.62758026 164.16754798 91.0625 168.96640015 C90.31411865 169.22574341 89.5657373 169.48508667 88.79467773 169.75228882 C77.80167311 173.68268885 69.14869754 179.40054602 60.4375 187.15390015 C59.64214844 187.85386108 58.84679687 188.55382202 58.02734375 189.2749939 C42.44586611 203.84086922 33.18451196 228.09273796 31.4375 249.15390015 C31.28763179 253.71814571 31.28352125 258.28034468 31.27978516 262.84677124 C31.27510882 264.2208726 31.26996392 265.59497243 31.26438904 266.96907043 C31.25316553 269.91494982 31.24470397 272.86081943 31.23826981 275.8067131 C31.22752603 280.47282349 31.20726548 285.13886302 31.18515015 289.80493164 C31.12343638 303.06900793 31.06923853 316.33307858 31.03613281 329.59725952 C31.01774386 336.93315307 30.98875945 344.26892623 30.9481281 351.6047312 C30.92713935 355.47935008 30.91161234 359.35381785 30.90932083 363.22849655 C30.90716157 366.87465712 30.89116341 370.5205025 30.86493111 374.16656685 C30.85440318 376.12785702 30.85847066 378.08920892 30.8631134 380.05052185 C30.7774393 389.23025068 30.14643942 398.1856841 23.5625 405.15390015 C22.90507813 405.87577515 22.24765625 406.59765015 21.5703125 407.34140015 C14.05762085 413.7258121 1.7010459 411.85942535 -7.5625 411.15390015 C-19.04299167 408.96713983 -27.73946053 401.35214404 -34.5625 392.15390015 C-38.01139639 385.95185015 -39.68463978 380.34861674 -39.69672108 373.25479698 C-39.70117892 372.04077812 -39.70563676 370.82675925 -39.71022969 369.57595193 C-39.7101404 368.2268838 -39.70995055 366.87781567 -39.70967102 365.52874756 C-39.7129707 364.09699072 -39.71669649 362.66523482 -39.7208125 361.2334801 C-39.73082876 357.29407453 -39.73454869 353.3546842 -39.73720181 349.41526771 C-39.74110596 345.16833839 -39.75068422 340.92142113 -39.75941467 336.67449951 C-39.77917583 326.41574301 -39.78924481 316.15698553 -39.79814246 305.89821476 C-39.80252589 301.06695519 -39.80789256 296.23569672 -39.81313133 291.40443802 C-39.83014318 275.34389409 -39.84463736 259.28335085 -39.85188007 243.2227993 C-39.85378996 239.0551389 -39.85571029 234.8874785 -39.85766602 230.71981812 C-39.85814976 229.68396929 -39.8586335 228.64812045 -39.8591319 227.58088227 C-39.86743223 210.8007554 -39.89276941 194.02069982 -39.92524669 177.24060409 C-39.95831966 160.01225867 -39.97632905 142.78394948 -39.97952431 125.55557215 C-39.98168918 115.88271007 -39.9904344 106.20995196 -40.01598549 96.53712082 C-40.03769571 88.29930386 -40.04574131 80.06161611 -40.03601871 71.82377379 C-40.03147496 67.62200322 -40.03336451 63.42049924 -40.05278015 59.21876526 C-40.07041942 55.36813632 -40.06940819 51.51796828 -40.05388286 47.66733439 C-40.05150793 46.27831595 -40.05582446 44.88926553 -40.06771151 43.50029592 C-40.17169026 30.54243606 -36.88977092 20.07527411 -27.97265625 10.43515015 C-19.81318869 2.90924125 -10.87178806 0.00662593 0 0 Z " fill="#F5A33E" transform="translate(39.5625,-0.153900146484375)"/>
</svg>
