<?xml version="1.0" encoding="UTF-8"?>
<svg version="1.1" xmlns="http://www.w3.org/2000/svg" width="788" height="223">
<path d="M0 0 C1.00370636 -0.0071553 2.00741272 -0.01431061 3.04153442 -0.02168274 C4.1418399 -0.02437164 5.24214539 -0.02706055 6.37579346 -0.02983093 C7.53541595 -0.03640213 8.69503845 -0.04297333 9.88980103 -0.04974365 C13.7357184 -0.06948959 17.58159671 -0.08114194 21.42755127 -0.09111023 C22.73997047 -0.09518576 24.05238968 -0.09926128 25.40457916 -0.10346031 C31.63401047 -0.12250739 37.86342996 -0.13673882 44.09288478 -0.14507228 C51.27528819 -0.15484005 58.45738304 -0.18114917 65.63967776 -0.22157317 C71.19649218 -0.25177133 76.75321833 -0.26654468 82.31011319 -0.26985329 C85.62648417 -0.27219982 88.94245064 -0.28309128 92.25875092 -0.30631447 C95.96207797 -0.33063671 99.66459864 -0.32975294 103.36798096 -0.32279968 C104.46018951 -0.33560974 105.55239807 -0.3484198 106.67770386 -0.36161804 C114.06648964 -0.31106917 118.47347553 0.8312101 124.05645752 5.89326477 C124.7428833 6.73051086 124.7428833 6.73051086 125.44317627 7.58467102 C125.91368408 8.14025696 126.38419189 8.6958429 126.86895752 9.26826477 C130.02872745 13.97368067 130.42197364 18.36402485 130.39810181 23.90774536 C130.40263292 24.68224791 130.40716403 25.45675045 130.41183245 26.25472277 C130.42447837 28.84629311 130.42285596 31.43765335 130.42120361 34.0292511 C130.42718877 35.88890859 130.43399428 37.74856359 130.44155884 39.60821533 C130.45922791 44.65789542 130.46391462 49.70750773 130.46519041 54.75721574 C130.46661211 57.91302778 130.47088209 61.06882259 130.47618484 64.22463036 C130.49468849 75.23698902 130.50285508 86.24929927 130.50128174 97.26167297 C130.50008042 107.52216251 130.52118011 117.78244167 130.55276906 128.04287797 C130.5789333 136.85577979 130.58964896 145.6686129 130.58837092 154.48155326 C130.58786131 159.74342124 130.59354409 165.00510228 130.61472702 170.26693153 C130.63411166 175.21723917 130.63423224 180.16718158 130.61969376 185.11750221 C130.61760481 186.93150364 130.62231167 188.74552795 130.63441467 190.5594902 C130.64990162 193.04196874 130.6405371 195.52319331 130.62515259 198.00564575 C130.63543971 198.7182126 130.64572684 199.43077944 130.6563257 200.16493922 C130.56878475 206.58651249 128.33042459 211.68564843 124.09552002 216.42451477 C123.42649658 216.97236633 122.75747314 217.5202179 122.06817627 218.08467102 C121.39657471 218.65056946 120.72497314 219.2164679 120.03302002 219.79951477 C116.07266324 222.60510633 112.00643255 222.3135171 107.35797119 222.34004211 C106.56737808 222.3482196 105.77678497 222.35639709 104.9622345 222.36482239 C102.34521233 222.38964015 99.72824425 222.40618252 97.11114502 222.42060852 C96.21671503 222.4259322 95.32228504 222.43125587 94.40075111 222.43674088 C89.66709882 222.46345589 84.93347276 222.48283663 80.19976807 222.49726868 C76.2838406 222.51061279 72.36843362 222.53847614 68.45269775 222.57929993 C63.72240596 222.62861454 58.99258661 222.65338808 54.26204872 222.66049576 C52.46112219 222.66720775 50.66020617 222.68242854 48.8594265 222.70638657 C46.33624808 222.73804215 43.81489018 222.73807499 41.29156494 222.73066711 C40.55108917 222.74707245 39.8106134 222.76347778 39.04769897 222.78038025 C35.2315618 222.73463058 32.70754188 222.19504434 29.74562073 219.86070251 C25.5206575 215.47645231 24.88113155 212.96719508 24.85601807 206.9042511 C24.84172005 205.00495598 24.84172005 205.00495598 24.82713318 203.06729126 C24.82739496 201.68376132 24.82833369 200.30023136 24.82989502 198.91670227 C24.82600169 197.48340736 24.82166572 196.05011359 24.81690979 194.61682129 C24.80944478 191.60484598 24.80973648 188.59298779 24.81500244 185.58100891 C24.81960229 182.52324085 24.81284273 179.46587331 24.79449463 176.40815735 C24.4912085 125.46230654 24.4912085 125.46230654 41.16192627 108.02217102 C49.5630121 99.97606065 57.43852684 97.50991495 68.8706665 97.68061829 C77.59914828 98.06045539 83.52778008 100.07115954 89.63067627 106.52217102 C95.13840103 112.91022884 95.6484922 119.41837667 95.50177002 127.60029602 C94.75523787 134.73557169 91.93403476 140.04202378 86.38067627 144.58467102 C79.63571378 149.49676327 71.746137 150.57066231 63.63067627 150.70967102 C55.21037977 150.89510985 46.52585601 151.12569016 39.63458252 156.52998352 C33.29858137 163.3432419 32.97723959 172.89027478 32.89239502 181.68623352 C32.88432327 182.4895108 32.87625153 183.29278809 32.86793518 184.1204071 C32.85417041 185.80964545 32.84341462 187.49891071 32.83551025 189.18818665 C32.82392969 190.9145066 32.80338328 192.64078909 32.77398682 194.36689758 C32.73142202 196.86942201 32.71516455 199.3708927 32.70489502 201.87373352 C32.68738693 202.64359589 32.66987885 203.41345825 32.65184021 204.20664978 C32.66513224 207.48289404 32.77274009 209.64749637 34.70831299 212.34953308 C38.02600792 214.81159743 40.24758558 214.65470413 44.35845947 214.66474915 C45.07931732 214.67175842 45.80017517 214.6787677 46.5428772 214.68598938 C48.92279755 214.70357449 51.30152531 214.69194215 53.68145752 214.67842102 C55.34049202 214.6811167 56.99952498 214.68499975 58.65855408 214.6900177 C62.13631222 214.69591416 65.61365931 214.68734866 69.09136963 214.6686554 C73.53679738 214.64591871 77.9812563 214.65895382 82.42664814 214.68294525 C85.8540518 214.69744508 89.28122839 214.69277727 92.70863914 214.68243408 C94.34680484 214.67977555 95.98499151 214.68300568 97.62313271 214.69235229 C99.92087438 214.70258146 102.21708126 214.68692844 104.51470947 214.66474915 C106.47184624 214.65997559 106.47184624 214.65997559 108.46852112 214.65510559 C113.13422829 214.0079801 115.31785581 212.92845804 119.13067627 210.14717102 C122.00104252 205.58788235 122.56350806 201.68136906 122.51835632 196.41146851 C122.52374186 195.65174018 122.5291274 194.89201185 122.53467613 194.10926145 C122.54893829 191.57363559 122.54185646 189.03853307 122.534729 186.50288391 C122.54043349 184.68086325 122.54739805 182.85884617 122.55552673 181.03683472 C122.5734645 176.09467729 122.57228859 171.15269736 122.56658435 166.21051717 C122.56349344 162.08273269 122.56958386 157.95498236 122.5756231 153.82720274 C122.58966871 144.08853371 122.58810668 134.3499524 122.57672119 124.61128235 C122.56523931 114.56829744 122.57931679 104.52557956 122.60611767 94.48262984 C122.62827675 85.85570015 122.63491158 77.22885426 122.62904125 68.60189813 C122.62567106 63.45131088 122.628091 58.30089479 122.64529228 53.1503315 C122.66076265 48.30669496 122.65680479 43.46345391 122.63798714 38.61983299 C122.63430154 36.84411825 122.63740887 35.0683742 122.64787292 33.29268646 C122.66108698 30.86462193 122.6495328 28.43786594 122.63188171 26.00985718 C122.64148672 25.3106234 122.65109173 24.61138963 122.66098779 23.89096695 C122.58072651 18.50862559 121.08705216 15.49175149 118.13067627 11.14717102 C112.93483704 7.26299248 107.30030778 7.72248969 101.07989502 7.75898743 C99.42517685 7.75110199 99.42517685 7.75110199 97.73703003 7.74305725 C94.0972673 7.72987348 90.45794331 7.73858997 86.81817627 7.74873352 C84.28521643 7.74671233 81.75225716 7.74380051 79.21929932 7.74003601 C73.91332923 7.73561484 68.60751582 7.74175012 63.30157471 7.75605774 C57.17688916 7.77238294 51.05250326 7.76709389 44.92782497 7.75057852 C39.02354386 7.73529784 33.11935543 7.73694871 27.21505737 7.74572372 C24.7080379 7.74772422 22.20101078 7.74527177 19.69400024 7.73828506 C16.1896136 7.73066197 12.68580141 7.74228774 9.18145752 7.75898743 C8.14647125 7.75291473 7.11148499 7.74684204 6.0451355 7.74058533 C0.71281187 7.78763277 -3.39802956 7.91382137 -7.86932373 11.14717102 C-11.5590648 15.70171602 -12.44914304 19.24618996 -12.3772583 24.9655304 C-12.38661824 26.11843189 -12.38661824 26.11843189 -12.39616728 27.29462433 C-12.41207411 29.86037212 -12.39950258 32.42516682 -12.38690186 34.99092102 C-12.39232402 36.83426974 -12.3994472 38.67761413 -12.40814209 40.52095032 C-12.42636718 45.52094664 -12.41931123 50.52061257 -12.40662575 55.52061462 C-12.3964939 60.75486639 -12.40589194 65.98909001 -12.41217041 71.2233429 C-12.41944626 80.01310807 -12.4098607 88.80273877 -12.39080811 97.59248352 C-12.36903952 107.75251288 -12.37609093 117.91222116 -12.39811373 128.07224274 C-12.41626945 136.7976786 -12.41882519 145.52301784 -12.40835905 154.24846649 C-12.40212509 159.45881411 -12.40128588 164.66901085 -12.414505 169.87934875 C-12.42606533 174.77798991 -12.41803431 179.67621735 -12.39492798 184.57481384 C-12.38964188 186.37190565 -12.39115298 188.16903232 -12.39997864 189.96611023 C-12.41092191 192.42081298 -12.39718636 194.87419301 -12.3772583 197.32881165 C-12.39064263 198.39370441 -12.39064263 198.39370441 -12.40429735 199.48011017 C-12.32579653 204.47060689 -10.99827563 207.30414333 -7.86932373 211.14717102 C-3.12724311 214.38040781 0.56913463 214.6942079 6.13067627 214.14717102 C8.30544028 212.60379011 8.94900263 211.51051829 10.13067627 209.14717102 C10.2429581 206.41671182 10.29536985 203.71050807 10.30426025 200.97920227 C10.31094727 200.13309891 10.31763428 199.28699554 10.32452393 198.41525269 C10.33860599 196.56937619 10.3504899 194.72348196 10.36047173 192.87757874 C10.37693696 189.92978285 10.4001928 186.98211165 10.42536926 184.03437805 C10.4958803 175.64902571 10.55534925 167.26361401 10.60748291 158.87812805 C11.2253132 62.19026963 11.2253132 62.19026963 39.44317627 32.73310852 C50.45625904 22.1789042 63.58700948 17.13804841 78.75567627 16.77217102 C91.16576379 17.06372568 100.90797609 21.12402736 109.52520752 30.11592102 C117.08265962 39.6776609 118.23933004 50.37951891 117.13067627 62.14717102 C116.26125035 65.8091552 114.9706661 68.8740538 113.13067627 72.14717102 C112.79165283 72.79041321 112.45262939 73.4336554 112.10333252 74.09638977 C108.1554496 80.57316567 101.45908722 83.94205671 94.50567627 86.45967102 C85.33226083 88.32832972 76.1941969 88.42649865 66.86114502 88.57685852 C53.58665904 88.94860609 42.24228586 92.44782027 32.88067627 102.27217102 C20.28563845 117.48799448 19.02009243 136.12109315 18.93144608 155.06426048 C18.91951683 157.3896529 18.90003568 159.71487101 18.87832642 162.04019165 C18.81714036 168.64488425 18.76258758 175.24954893 18.72930908 181.85444641 C18.7083323 185.9109511 18.67302387 189.96711961 18.62855148 194.02343178 C18.61443629 195.56190345 18.6056792 197.10043438 18.6024971 198.63896751 C18.59757181 200.79009043 18.57438001 202.94032207 18.54718018 205.09126282 C18.53909332 206.31210068 18.53100647 207.53293854 18.52267456 208.79077148 C17.95288197 213.66949582 16.26799431 216.95209077 12.90020752 220.49092102 C7.17484143 223.9148353 -1.06689299 223.08028286 -7.41619873 221.52217102 C-12.71465722 219.22206501 -15.96875243 215.03498495 -18.86932373 210.14717102 C-20.06593413 206.55733983 -20.01743471 203.28765675 -20.01649475 199.55117798 C-20.02017144 198.77021718 -20.02384813 197.98925638 -20.02763623 197.1846301 C-20.03867774 194.55926278 -20.04251771 191.93393504 -20.04632568 189.30854797 C-20.05259001 187.42948277 -20.05923678 185.5504188 -20.0662384 183.6713562 C-20.08365151 178.55959378 -20.09420116 173.44784072 -20.10244393 168.33605599 C-20.10759377 165.14240306 -20.11366953 161.94875304 -20.11995506 158.75510216 C-20.13900861 148.7630205 -20.15323902 138.77094624 -20.16156703 128.7788499 C-20.17133898 117.24463996 -20.19765678 105.71062195 -20.23806792 94.17647964 C-20.26822986 85.26171656 -20.28303601 76.34700848 -20.28634804 67.43219537 C-20.28869855 62.10768796 -20.29765909 56.78338555 -20.32280922 51.45893288 C-20.34609603 46.44793181 -20.35032064 41.43727064 -20.34004784 36.42622948 C-20.33955251 34.58964787 -20.3458721 32.7530495 -20.35960388 30.91651917 C-20.37733987 28.4033016 -20.37020884 25.89130161 -20.35707092 23.37808228 C-20.36804017 22.65636929 -20.37900941 21.93465631 -20.39031106 21.19107324 C-20.31159266 14.92645325 -18.27640432 9.58197231 -13.83416748 5.08857727 C-13.16514404 4.63353821 -12.49612061 4.17849915 -11.80682373 3.70967102 C-11.13522217 3.23658508 -10.46362061 2.76349915 -9.77166748 2.27607727 C-6.46756802 0.31532831 -3.75551674 0.01838253 0 0 Z " fill="#EF9A3E" transform="translate(19.86932373046875,-0.1471710205078125)"/>
<path d="M0 0 C5.36752369 1.07350474 6.26442734 1.78466439 9.875 5.5625 C10.67679688 6.38878906 11.47859375 7.21507813 12.3046875 8.06640625 C14.35511435 10.29810272 16.36033443 12.54916006 18.34765625 14.8359375 C21.98258591 19.01227105 25.75320297 23.04545747 29.5625 27.0625 C30.97551027 28.55835778 32.38826585 30.05445617 33.80078125 31.55078125 C34.50412598 32.29537598 35.2074707 33.0399707 35.93212891 33.80712891 C43.31650827 41.63788398 50.64555305 49.52066878 57.9375 57.4375 C62.62166563 62.52270993 67.33539421 67.57968538 72.0625 72.625 C72.70630615 73.31263428 73.3501123 74.00026855 74.01342773 74.70874023 C74.92137085 75.67662476 74.92137085 75.67662476 75.84765625 76.6640625 C76.38398682 77.23592285 76.92031738 77.8077832 77.47290039 78.39697266 C78.95729121 79.95516772 80.47825956 81.47825956 82 83 C82.33 55.61 82.66 28.22 83 0 C86.3 0 89.6 0 93 0 C93 36.96 93 73.92 93 112 C85 112 85 112 82.49609375 110.3125 C81.47708984 109.1678125 81.47708984 109.1678125 80.4375 108 C79.31021484 106.76636719 79.31021484 106.76636719 78.16015625 105.5078125 C77.44730469 104.68023437 76.73445312 103.85265625 76 103 C75.06994141 101.94425781 75.06994141 101.94425781 74.12109375 100.8671875 C72.9669507 99.55038 71.81966081 98.22753081 70.6796875 96.8984375 C68.4771278 94.40903281 66.11647364 92.1054897 63.74609375 89.77734375 C61.93522357 87.93406426 60.24678646 86.02177201 58.5625 84.0625 C56.14382221 81.25423653 53.64100317 78.60029407 51 76 C47.74970017 72.79970478 44.75275755 69.45775424 41.78125 66 C39.29742572 63.21114467 36.63288563 60.62313017 33.97265625 58.00390625 C31.42917287 55.42013007 29.08436152 52.6904527 26.72265625 49.94140625 C24.51616102 47.45472115 22.16971211 45.13869896 19.7734375 42.8359375 C17.37474441 40.35270897 15.21027337 37.65232805 13 35 C12.67 60.41 12.34 85.82 12 112 C8.04 112 4.08 112 0 112 C0 75.04 0 38.08 0 0 Z " fill="#EF9A3E" transform="translate(695,57)"/>
<path d="M0 0 C0.91015869 0.00491455 1.82031738 0.0098291 2.75805664 0.01489258 C16.59854026 0.25149241 30.41718047 3.08359024 42.875 9.3125 C42.23312082 14.44753344 41.19227753 19.3068454 39.875 24.3125 C35.75534706 22.83247654 32.30648199 20.79400417 28.625 18.4375 C16.29275131 10.68964591 5.12120527 7.10859639 -9.61328125 9.99609375 C-20.24699136 13.00752047 -28.78010254 18.1195189 -35.125 27.3125 C-43.09388787 41.79177902 -44.69393963 57.18547332 -41.125 73.3125 C-37.86245277 83.96248899 -32.05273077 91.6617265 -23.125 98.3125 C-20.23447838 99.80154557 -20.23447838 99.80154557 -17.1875 101 C-15.68896484 101.62455078 -15.68896484 101.62455078 -14.16015625 102.26171875 C-1.5263751 106.63557606 12.46522539 104.44909154 24.875 100.3125 C25.205 87.1125 25.535 73.9125 25.875 60.3125 C31.485 60.3125 37.095 60.3125 42.875 60.3125 C42.875 75.4925 42.875 90.6725 42.875 106.3125 C21.1926444 114.44338335 -6.77503013 117.48531661 -28.8125 108.87109375 C-41.30393865 103.06957429 -52.03037594 94.18703546 -57.40625 81.22265625 C-63.17447836 64.55659644 -62.6440171 47.40791927 -55.8046875 31.1796875 C-48.74151863 17.32352562 -37.97955894 8.78722393 -23.59375 3.35546875 C-15.73175569 0.9915583 -8.20147912 -0.0533015 0 0 Z " fill="#EF9A3E" transform="translate(497.125,56.6875)"/>
<path d="M0 0 C1.65 0 3.3 0 5 0 C5.42071777 0.96671631 5.84143555 1.93343262 6.27490234 2.92944336 C14.19517906 21.12575551 22.13000003 39.31544885 30.11633301 57.48287964 C32.35170046 62.56938162 34.58399791 67.65723156 36.81604004 72.74519348 C38.55982482 76.71989371 40.30494608 80.69399197 42.05371094 84.66650391 C43.62841861 88.24426575 45.19785928 91.82428945 46.76306152 95.40621948 C47.33182739 96.70535531 47.90250745 98.00365499 48.47521973 99.30105591 C49.25156775 101.06045592 50.02053105 102.82310907 50.7890625 104.5859375 C51.21912598 105.5661084 51.64918945 106.5462793 52.09228516 107.55615234 C53 110 53 110 53 113 C46.73 113 40.46 113 34 113 C31.85909782 107.50246905 29.72129505 102.0039378 27.59130859 96.50219727 C26.86557952 94.63040074 26.13804882 92.75930172 25.40869141 90.88891602 C24.36147781 88.20249258 23.32073962 85.51363875 22.28125 82.82421875 C21.95314331 81.98662521 21.62503662 81.14903168 21.2869873 80.28605652 C20.98667603 79.50547379 20.68636475 78.72489105 20.37695312 77.9206543 C20.11047974 77.23448532 19.84400635 76.54831635 19.56945801 75.84135437 C19 74 19 74 19 71 C6.13 71 -6.74 71 -20 71 C-20.99 73.97 -21.98 76.94 -23 80 C-24.02600438 82.70961176 -25.06533278 85.40646037 -26.13671875 88.09765625 C-26.42102249 88.8173912 -26.70532623 89.53712616 -26.99824524 90.27867126 C-27.89241786 92.5408438 -28.78989238 94.80168856 -29.6875 97.0625 C-30.30035078 98.61124086 -30.91298284 100.16006829 -31.52539062 101.70898438 C-33.01440605 105.47365954 -34.50638085 109.2371491 -36 113 C-40.62 113 -45.24 113 -50 113 C-49.1051057 108.5255285 -47.76780201 104.94715319 -45.859375 100.875 C-45.54133408 100.18482285 -45.22329315 99.49464569 -44.89561462 98.78355408 C-44.21008826 97.29725455 -43.52217605 95.81205357 -42.8321228 94.32785034 C-41.35794763 91.15662137 -39.89566158 87.97996072 -38.4329071 84.80345154 C-37.68663933 83.1828885 -36.93982041 81.56257916 -36.19245911 79.94252014 C-32.9745597 72.9626728 -29.81906909 65.95655173 -26.6875 58.9375 C-21.07695114 46.37982475 -15.41906953 33.84385593 -9.75 21.3125 C-9.1071254 19.89081009 -9.1071254 19.89081009 -8.45126343 18.44039917 C-7.2336062 15.74781256 -6.01536034 13.0554932 -4.796875 10.36328125 C-4.42772476 9.54701263 -4.05857452 8.73074402 -3.67823792 7.88973999 C-1.11560737 2.23121474 -1.11560737 2.23121474 0 0 Z M-1 27 C-6.62397543 37.77342793 -11.36013819 48.76665036 -16 60 C-6.43 60 3.14 60 13 60 C12.13153167 55.65765837 11.02180771 52.40816725 9.27734375 48.38671875 C8.87993736 47.46509697 8.87993736 47.46509697 8.47450256 46.52485657 C7.63337662 44.57706836 6.78555741 42.63227882 5.9375 40.6875 C5.36348661 39.36152097 4.7899142 38.03535095 4.21679688 36.70898438 C2.81629428 33.47043034 1.40977678 30.23452947 0 27 C-0.33 27 -0.66 27 -1 27 Z " fill="#EF9A3E" transform="translate(294,57)"/>
<path d="M0 0 C4.95 0 9.9 0 15 0 C15.01458252 2.14854492 15.02916504 4.29708984 15.04418945 6.51074219 C15.09478229 13.65140478 15.16141902 20.79185492 15.23571491 27.9323082 C15.28022735 32.25677333 15.31952419 36.58114839 15.34643555 40.90576172 C15.37266119 45.08809309 15.41319561 49.27007419 15.46318626 53.45218658 C15.47972596 55.03872533 15.49131979 56.62532448 15.49761391 58.21193695 C15.55588821 71.56522851 16.26578669 84.31631805 25.52734375 94.71484375 C32.09895291 101.03905115 39.63236386 102.16046042 48.5 102.375 C58.69093295 102.10843636 65.63276636 100.44156796 73.08984375 93.234375 C81.99084693 82.8225676 81.31779419 68.18826432 81.4140625 55.2734375 C81.43280643 53.6734623 81.45238215 52.07349664 81.4727478 50.47354126 C81.52373484 46.29471508 81.56353777 42.11585696 81.60089111 37.93688965 C81.64114225 33.65967121 81.69213748 29.38258176 81.7421875 25.10546875 C81.83855012 16.73706779 81.92307971 8.36860216 82 0 C85.3 0 88.6 0 92 0 C92.0698947 9.42384486 92.1230098 18.84759876 92.15543652 28.27164745 C92.17100949 32.64888433 92.19209229 37.02594225 92.22631836 41.40307617 C92.2592136 45.6371108 92.27691572 49.87097465 92.28463173 54.10512733 C92.29012167 55.71044918 92.30084 57.315763 92.31719017 58.92101097 C92.47650796 75.22988623 90.51582743 89.66450536 79.08203125 102.14453125 C69.31982057 110.84443758 58.22603516 112.35006302 45.6875 112.3125 C44.09131836 112.33666992 44.09131836 112.33666992 42.46289062 112.36132812 C30.34854397 112.36871943 19.37676065 109.61528858 10.18359375 101.37109375 C-0.6711174 89.64582933 -0.29198139 74.16363942 -0.1953125 59.1796875 C-0.19157569 57.46762254 -0.18873188 55.75555542 -0.18673706 54.04348755 C-0.17915312 49.56862332 -0.15955052 45.09389188 -0.1373291 40.61907959 C-0.11675691 36.04034216 -0.10771118 31.46158297 -0.09765625 26.8828125 C-0.07629894 17.9218077 -0.0411604 8.96093574 0 0 Z " fill="#EF9A3E" transform="translate(571,57)"/>
<path d="M0 0 C19.8 0 39.6 0 60 0 C60 3.63 60 7.26 60 11 C45.48 11 30.96 11 16 11 C16 22.88 16 34.76 16 47 C29.53 47 43.06 47 57 47 C57 50.63 57 54.26 57 58 C43.47 58 29.94 58 16 58 C16 75.49 16 92.98 16 111 C10.72 111 5.44 111 0 111 C0 74.37 0 37.74 0 0 Z " fill="#EF9A3E" transform="translate(174,58)"/>
<path d="M0 0 C5.28 0 10.56 0 16 0 C16 33 16 66 16 100 C30.85 100 45.7 100 61 100 C61 103.63 61 107.26 61 111 C40.87 111 20.74 111 0 111 C0 74.37 0 37.74 0 0 Z " fill="#EF9A3E" transform="translate(365,58)"/>
</svg>
